solid OpenSCAD_Model
  facet normal -0.156443 -0.987687 0
    outer loop
      vertex 6.5 4.95 0.5
      vertex 6.9867 4.87291 3.5
      vertex 6.5 4.95 3.5
    endloop
  endfacet
  facet normal -0.156443 -0.987687 -0
    outer loop
      vertex 6.9867 4.87291 3.5
      vertex 6.5 4.95 0.5
      vertex 6.9867 4.87291 0.5
    endloop
  endfacet
  facet normal -0.891008 -0.453987 0
    outer loop
      vertex 7.99791 3.8617 0.5
      vertex 7.7742 4.30076 3.5
      vertex 7.7742 4.30076 0.5
    endloop
  endfacet
  facet normal -0.891008 -0.453987 0
    outer loop
      vertex 7.7742 4.30076 3.5
      vertex 7.99791 3.8617 0.5
      vertex 7.99791 3.8617 3.5
    endloop
  endfacet
  facet normal -0.987687 -0.156443 0
    outer loop
      vertex 8.075 3.375 0.5
      vertex 7.99791 3.8617 3.5
      vertex 7.99791 3.8617 0.5
    endloop
  endfacet
  facet normal -0.987687 -0.156443 0
    outer loop
      vertex 7.99791 3.8617 3.5
      vertex 8.075 3.375 0.5
      vertex 8.075 3.375 3.5
    endloop
  endfacet
  facet normal -0.707107 -0.707107 0
    outer loop
      vertex 7.7742 4.30076 0.5
      vertex 7.42576 4.6492 3.5
      vertex 7.42576 4.6492 0.5
    endloop
  endfacet
  facet normal -0.707107 -0.707107 0
    outer loop
      vertex 7.42576 4.6492 3.5
      vertex 7.7742 4.30076 0.5
      vertex 7.7742 4.30076 3.5
    endloop
  endfacet
  facet normal -0.707107 0.707107 0
    outer loop
      vertex 7.42576 2.1008 0.5
      vertex 7.7742 2.44924 3.5
      vertex 7.7742 2.44924 0.5
    endloop
  endfacet
  facet normal -0.707107 0.707107 0
    outer loop
      vertex 7.7742 2.44924 3.5
      vertex 7.42576 2.1008 0.5
      vertex 7.42576 2.1008 3.5
    endloop
  endfacet
  facet normal -0.453987 0.891008 0
    outer loop
      vertex 7.42576 2.1008 0.5
      vertex 6.9867 1.87709 3.5
      vertex 7.42576 2.1008 3.5
    endloop
  endfacet
  facet normal -0.453987 0.891008 0
    outer loop
      vertex 6.9867 1.87709 3.5
      vertex 7.42576 2.1008 0.5
      vertex 6.9867 1.87709 0.5
    endloop
  endfacet
  facet normal 0.891008 -0.453987 0
    outer loop
      vertex 5.00209 3.8617 3.5
      vertex 5.2258 4.30076 0.5
      vertex 5.2258 4.30076 3.5
    endloop
  endfacet
  facet normal 0.891008 -0.453987 0
    outer loop
      vertex 5.2258 4.30076 0.5
      vertex 5.00209 3.8617 3.5
      vertex 5.00209 3.8617 0.5
    endloop
  endfacet
  facet normal 0.707107 -0.707107 0
    outer loop
      vertex 5.2258 4.30076 3.5
      vertex 5.57424 4.6492 0.5
      vertex 5.57424 4.6492 3.5
    endloop
  endfacet
  facet normal 0.707107 -0.707107 0
    outer loop
      vertex 5.57424 4.6492 0.5
      vertex 5.2258 4.30076 3.5
      vertex 5.2258 4.30076 0.5
    endloop
  endfacet
  facet normal -0.891008 0.453987 0
    outer loop
      vertex 7.7742 2.44924 0.5
      vertex 7.99791 2.8883 3.5
      vertex 7.99791 2.8883 0.5
    endloop
  endfacet
  facet normal -0.891008 0.453987 0
    outer loop
      vertex 7.99791 2.8883 3.5
      vertex 7.7742 2.44924 0.5
      vertex 7.7742 2.44924 3.5
    endloop
  endfacet
  facet normal 0.156443 0.987687 -0
    outer loop
      vertex 6.5 1.8 0.5
      vertex 6.0133 1.87709 3.5
      vertex 6.5 1.8 3.5
    endloop
  endfacet
  facet normal 0.156443 0.987687 0
    outer loop
      vertex 6.0133 1.87709 3.5
      vertex 6.5 1.8 0.5
      vertex 6.0133 1.87709 0.5
    endloop
  endfacet
  facet normal 0.156443 -0.987687 0
    outer loop
      vertex 6.0133 4.87291 0.5
      vertex 6.5 4.95 3.5
      vertex 6.0133 4.87291 3.5
    endloop
  endfacet
  facet normal 0.156443 -0.987687 0
    outer loop
      vertex 6.5 4.95 3.5
      vertex 6.0133 4.87291 0.5
      vertex 6.5 4.95 0.5
    endloop
  endfacet
  facet normal -0.987687 0.156443 0
    outer loop
      vertex 7.99791 2.8883 0.5
      vertex 8.075 3.375 3.5
      vertex 8.075 3.375 0.5
    endloop
  endfacet
  facet normal -0.987687 0.156443 0
    outer loop
      vertex 8.075 3.375 3.5
      vertex 7.99791 2.8883 0.5
      vertex 7.99791 2.8883 3.5
    endloop
  endfacet
  facet normal 0.707107 0.707107 0
    outer loop
      vertex 5.57424 2.1008 3.5
      vertex 5.2258 2.44924 0.5
      vertex 5.2258 2.44924 3.5
    endloop
  endfacet
  facet normal 0.707107 0.707107 0
    outer loop
      vertex 5.2258 2.44924 0.5
      vertex 5.57424 2.1008 3.5
      vertex 5.57424 2.1008 0.5
    endloop
  endfacet
  facet normal 0.453987 -0.891008 0
    outer loop
      vertex 5.57424 4.6492 0.5
      vertex 6.0133 4.87291 3.5
      vertex 5.57424 4.6492 3.5
    endloop
  endfacet
  facet normal 0.453987 -0.891008 0
    outer loop
      vertex 6.0133 4.87291 3.5
      vertex 5.57424 4.6492 0.5
      vertex 6.0133 4.87291 0.5
    endloop
  endfacet
  facet normal 0.987687 0.156443 0
    outer loop
      vertex 5.00209 2.8883 3.5
      vertex 4.925 3.375 0.5
      vertex 4.925 3.375 3.5
    endloop
  endfacet
  facet normal 0.987687 0.156443 0
    outer loop
      vertex 4.925 3.375 0.5
      vertex 5.00209 2.8883 3.5
      vertex 5.00209 2.8883 0.5
    endloop
  endfacet
  facet normal -0.156443 0.987687 0
    outer loop
      vertex 6.9867 1.87709 0.5
      vertex 6.5 1.8 3.5
      vertex 6.9867 1.87709 3.5
    endloop
  endfacet
  facet normal -0.156443 0.987687 0
    outer loop
      vertex 6.5 1.8 3.5
      vertex 6.9867 1.87709 0.5
      vertex 6.5 1.8 0.5
    endloop
  endfacet
  facet normal -0.453987 -0.891008 0
    outer loop
      vertex 6.9867 4.87291 0.5
      vertex 7.42576 4.6492 3.5
      vertex 6.9867 4.87291 3.5
    endloop
  endfacet
  facet normal -0.453987 -0.891008 -0
    outer loop
      vertex 7.42576 4.6492 3.5
      vertex 6.9867 4.87291 0.5
      vertex 7.42576 4.6492 0.5
    endloop
  endfacet
  facet normal 0.891008 0.453987 0
    outer loop
      vertex 5.2258 2.44924 3.5
      vertex 5.00209 2.8883 0.5
      vertex 5.00209 2.8883 3.5
    endloop
  endfacet
  facet normal 0.891008 0.453987 0
    outer loop
      vertex 5.00209 2.8883 0.5
      vertex 5.2258 2.44924 3.5
      vertex 5.2258 2.44924 0.5
    endloop
  endfacet
  facet normal 0.987687 -0.156443 0
    outer loop
      vertex 4.925 3.375 3.5
      vertex 5.00209 3.8617 0.5
      vertex 5.00209 3.8617 3.5
    endloop
  endfacet
  facet normal 0.987687 -0.156443 0
    outer loop
      vertex 5.00209 3.8617 0.5
      vertex 4.925 3.375 3.5
      vertex 4.925 3.375 0.5
    endloop
  endfacet
  facet normal 0.453987 0.891008 -0
    outer loop
      vertex 6.0133 1.87709 0.5
      vertex 5.57424 2.1008 3.5
      vertex 6.0133 1.87709 3.5
    endloop
  endfacet
  facet normal 0.453987 0.891008 0
    outer loop
      vertex 5.57424 2.1008 3.5
      vertex 6.0133 1.87709 0.5
      vertex 5.57424 2.1008 0.5
    endloop
  endfacet
  facet normal 0.987687 0.156443 0
    outer loop
      vertex 5.00209 -3.8617 3.5
      vertex 4.925 -3.375 0.5
      vertex 4.925 -3.375 3.5
    endloop
  endfacet
  facet normal 0.987687 0.156443 0
    outer loop
      vertex 4.925 -3.375 0.5
      vertex 5.00209 -3.8617 3.5
      vertex 5.00209 -3.8617 0.5
    endloop
  endfacet
  facet normal -0.891008 -0.453987 0
    outer loop
      vertex 7.99791 -2.8883 0.5
      vertex 7.7742 -2.44924 3.5
      vertex 7.7742 -2.44924 0.5
    endloop
  endfacet
  facet normal -0.891008 -0.453987 0
    outer loop
      vertex 7.7742 -2.44924 3.5
      vertex 7.99791 -2.8883 0.5
      vertex 7.99791 -2.8883 3.5
    endloop
  endfacet
  facet normal -0.987687 -0.156443 0
    outer loop
      vertex 8.075 -3.375 0.5
      vertex 7.99791 -2.8883 3.5
      vertex 7.99791 -2.8883 0.5
    endloop
  endfacet
  facet normal -0.987687 -0.156443 0
    outer loop
      vertex 7.99791 -2.8883 3.5
      vertex 8.075 -3.375 0.5
      vertex 8.075 -3.375 3.5
    endloop
  endfacet
  facet normal -0.707107 -0.707107 0
    outer loop
      vertex 7.7742 -2.44924 0.5
      vertex 7.42576 -2.1008 3.5
      vertex 7.42576 -2.1008 0.5
    endloop
  endfacet
  facet normal -0.707107 -0.707107 0
    outer loop
      vertex 7.42576 -2.1008 3.5
      vertex 7.7742 -2.44924 0.5
      vertex 7.7742 -2.44924 3.5
    endloop
  endfacet
  facet normal -0.707107 0.707107 0
    outer loop
      vertex 7.42576 -4.6492 0.5
      vertex 7.7742 -4.30076 3.5
      vertex 7.7742 -4.30076 0.5
    endloop
  endfacet
  facet normal -0.707107 0.707107 0
    outer loop
      vertex 7.7742 -4.30076 3.5
      vertex 7.42576 -4.6492 0.5
      vertex 7.42576 -4.6492 3.5
    endloop
  endfacet
  facet normal 0.156443 -0.987687 0
    outer loop
      vertex 6.0133 -1.87709 0.5
      vertex 6.5 -1.8 3.5
      vertex 6.0133 -1.87709 3.5
    endloop
  endfacet
  facet normal 0.156443 -0.987687 0
    outer loop
      vertex 6.5 -1.8 3.5
      vertex 6.0133 -1.87709 0.5
      vertex 6.5 -1.8 0.5
    endloop
  endfacet
  facet normal -0.156443 -0.987687 0
    outer loop
      vertex 6.5 -1.8 0.5
      vertex 6.9867 -1.87709 3.5
      vertex 6.5 -1.8 3.5
    endloop
  endfacet
  facet normal -0.156443 -0.987687 -0
    outer loop
      vertex 6.9867 -1.87709 3.5
      vertex 6.5 -1.8 0.5
      vertex 6.9867 -1.87709 0.5
    endloop
  endfacet
  facet normal 0.891008 0.453987 0
    outer loop
      vertex 5.2258 -4.30076 3.5
      vertex 5.00209 -3.8617 0.5
      vertex 5.00209 -3.8617 3.5
    endloop
  endfacet
  facet normal 0.891008 0.453987 0
    outer loop
      vertex 5.00209 -3.8617 0.5
      vertex 5.2258 -4.30076 3.5
      vertex 5.2258 -4.30076 0.5
    endloop
  endfacet
  facet normal -0.453987 -0.891008 0
    outer loop
      vertex 6.9867 -1.87709 0.5
      vertex 7.42576 -2.1008 3.5
      vertex 6.9867 -1.87709 3.5
    endloop
  endfacet
  facet normal -0.453987 -0.891008 -0
    outer loop
      vertex 7.42576 -2.1008 3.5
      vertex 6.9867 -1.87709 0.5
      vertex 7.42576 -2.1008 0.5
    endloop
  endfacet
  facet normal 0.156443 0.987687 -0
    outer loop
      vertex 6.5 -4.95 0.5
      vertex 6.0133 -4.87291 3.5
      vertex 6.5 -4.95 3.5
    endloop
  endfacet
  facet normal 0.156443 0.987687 0
    outer loop
      vertex 6.0133 -4.87291 3.5
      vertex 6.5 -4.95 0.5
      vertex 6.0133 -4.87291 0.5
    endloop
  endfacet
  facet normal 0.453987 -0.891008 0
    outer loop
      vertex 5.57424 -2.1008 0.5
      vertex 6.0133 -1.87709 3.5
      vertex 5.57424 -2.1008 3.5
    endloop
  endfacet
  facet normal 0.453987 -0.891008 0
    outer loop
      vertex 6.0133 -1.87709 3.5
      vertex 5.57424 -2.1008 0.5
      vertex 6.0133 -1.87709 0.5
    endloop
  endfacet
  facet normal -0.156443 0.987687 0
    outer loop
      vertex 6.9867 -4.87291 0.5
      vertex 6.5 -4.95 3.5
      vertex 6.9867 -4.87291 3.5
    endloop
  endfacet
  facet normal -0.156443 0.987687 0
    outer loop
      vertex 6.5 -4.95 3.5
      vertex 6.9867 -4.87291 0.5
      vertex 6.5 -4.95 0.5
    endloop
  endfacet
  facet normal -0.453987 0.891008 0
    outer loop
      vertex 7.42576 -4.6492 0.5
      vertex 6.9867 -4.87291 3.5
      vertex 7.42576 -4.6492 3.5
    endloop
  endfacet
  facet normal -0.453987 0.891008 0
    outer loop
      vertex 6.9867 -4.87291 3.5
      vertex 7.42576 -4.6492 0.5
      vertex 6.9867 -4.87291 0.5
    endloop
  endfacet
  facet normal 0.707107 0.707107 0
    outer loop
      vertex 5.57424 -4.6492 3.5
      vertex 5.2258 -4.30076 0.5
      vertex 5.2258 -4.30076 3.5
    endloop
  endfacet
  facet normal 0.707107 0.707107 0
    outer loop
      vertex 5.2258 -4.30076 0.5
      vertex 5.57424 -4.6492 3.5
      vertex 5.57424 -4.6492 0.5
    endloop
  endfacet
  facet normal 0.891008 -0.453987 0
    outer loop
      vertex 5.00209 -2.8883 3.5
      vertex 5.2258 -2.44924 0.5
      vertex 5.2258 -2.44924 3.5
    endloop
  endfacet
  facet normal 0.891008 -0.453987 0
    outer loop
      vertex 5.2258 -2.44924 0.5
      vertex 5.00209 -2.8883 3.5
      vertex 5.00209 -2.8883 0.5
    endloop
  endfacet
  facet normal 0.707107 -0.707107 0
    outer loop
      vertex 5.2258 -2.44924 3.5
      vertex 5.57424 -2.1008 0.5
      vertex 5.57424 -2.1008 3.5
    endloop
  endfacet
  facet normal 0.707107 -0.707107 0
    outer loop
      vertex 5.57424 -2.1008 0.5
      vertex 5.2258 -2.44924 3.5
      vertex 5.2258 -2.44924 0.5
    endloop
  endfacet
  facet normal -0.891008 0.453987 0
    outer loop
      vertex 7.7742 -4.30076 0.5
      vertex 7.99791 -3.8617 3.5
      vertex 7.99791 -3.8617 0.5
    endloop
  endfacet
  facet normal -0.891008 0.453987 0
    outer loop
      vertex 7.99791 -3.8617 3.5
      vertex 7.7742 -4.30076 0.5
      vertex 7.7742 -4.30076 3.5
    endloop
  endfacet
  facet normal -0.987687 0.156443 0
    outer loop
      vertex 7.99791 -3.8617 0.5
      vertex 8.075 -3.375 3.5
      vertex 8.075 -3.375 0.5
    endloop
  endfacet
  facet normal -0.987687 0.156443 0
    outer loop
      vertex 8.075 -3.375 3.5
      vertex 7.99791 -3.8617 0.5
      vertex 7.99791 -3.8617 3.5
    endloop
  endfacet
  facet normal 0.453987 0.891008 -0
    outer loop
      vertex 6.0133 -4.87291 0.5
      vertex 5.57424 -4.6492 3.5
      vertex 6.0133 -4.87291 3.5
    endloop
  endfacet
  facet normal 0.453987 0.891008 0
    outer loop
      vertex 5.57424 -4.6492 3.5
      vertex 6.0133 -4.87291 0.5
      vertex 5.57424 -4.6492 0.5
    endloop
  endfacet
  facet normal 0.987687 -0.156443 0
    outer loop
      vertex 4.925 -3.375 3.5
      vertex 5.00209 -2.8883 0.5
      vertex 5.00209 -2.8883 3.5
    endloop
  endfacet
  facet normal 0.987687 -0.156443 0
    outer loop
      vertex 5.00209 -2.8883 0.5
      vertex 4.925 -3.375 3.5
      vertex 4.925 -3.375 0.5
    endloop
  endfacet
  facet normal -0.779904 0.6259 0
    outer loop
      vertex -1.84114 7.30513 0.5
      vertex -1.62456 7.575 3.5
      vertex -1.62456 7.575 0.5
    endloop
  endfacet
  facet normal -0.779904 0.6259 0
    outer loop
      vertex -1.62456 7.575 3.5
      vertex -1.84114 7.30513 0.5
      vertex -1.84114 7.30513 3.5
    endloop
  endfacet
  facet normal 0 1 -0
    outer loop
      vertex 11 7.575 0.5
      vertex -1.62456 7.575 3.5
      vertex 11 7.575 3.5
    endloop
  endfacet
  facet normal 0 1 0
    outer loop
      vertex -1.62456 7.575 3.5
      vertex 11 7.575 0.5
      vertex -1.62456 7.575 0.5
    endloop
  endfacet
  facet normal 0 -1 0
    outer loop
      vertex -1.62456 -7.575 0.5
      vertex 11 -7.575 3.5
      vertex -1.62456 -7.575 3.5
    endloop
  endfacet
  facet normal 0 -1 -0
    outer loop
      vertex 11 -7.575 3.5
      vertex -1.62456 -7.575 0.5
      vertex 11 -7.575 0.5
    endloop
  endfacet
  facet normal -0.932013 0.362426 0
    outer loop
      vertex -3.59721 4.10423 0.5
      vertex -3.40746 4.59219 3.5
      vertex -3.40746 4.59219 0.5
    endloop
  endfacet
  facet normal -0.932013 0.362426 0
    outer loop
      vertex -3.40746 4.59219 3.5
      vertex -3.59721 4.10423 0.5
      vertex -3.59721 4.10423 3.5
    endloop
  endfacet
  facet normal 1 -0 0
    outer loop
      vertex 11 -7.575 3.5
      vertex 11 7.575 0.5
      vertex 11 7.575 3.5
    endloop
  endfacet
  facet normal 1 0 0
    outer loop
      vertex 11 7.575 0.5
      vertex 11 -7.575 3.5
      vertex 11 -7.575 0.5
    endloop
  endfacet
  facet normal -0.831465 -0.555577 0
    outer loop
      vertex -2.15073 -6.8829 0.5
      vertex -2.4416 -6.44759 3.5
      vertex -2.4416 -6.44759 0.5
    endloop
  endfacet
  facet normal -0.831465 -0.555577 0
    outer loop
      vertex -2.4416 -6.44759 3.5
      vertex -2.15073 -6.8829 0.5
      vertex -2.15073 -6.8829 3.5
    endloop
  endfacet
  facet normal -0.999762 -0.0218128 0
    outer loop
      vertex -4.30949 -0.523422 0.5
      vertex -4.32091 0 3.5
      vertex -4.32091 0 0.5
    endloop
  endfacet
  facet normal -0.999762 -0.0218128 0
    outer loop
      vertex -4.32091 0 3.5
      vertex -4.30949 -0.523422 0.5
      vertex -4.30949 -0.523422 3.5
    endloop
  endfacet
  facet normal -0.932013 -0.362426 0
    outer loop
      vertex -3.40746 -4.59219 0.5
      vertex -3.59721 -4.10423 3.5
      vertex -3.59721 -4.10423 0.5
    endloop
  endfacet
  facet normal -0.932013 -0.362426 0
    outer loop
      vertex -3.59721 -4.10423 3.5
      vertex -3.40746 -4.59219 0.5
      vertex -3.40746 -4.59219 3.5
    endloop
  endfacet
  facet normal -0.854907 0.518781 0
    outer loop
      vertex -2.71321 6 0.5
      vertex -2.4416 6.44759 3.5
      vertex -2.4416 6.44759 0.5
    endloop
  endfacet
  facet normal -0.854907 0.518781 0
    outer loop
      vertex -2.4416 6.44759 3.5
      vertex -2.71321 6 0.5
      vertex -2.71321 6 3.5
    endloop
  endfacet
  facet normal -0.997858 -0.0654163 0
    outer loop
      vertex -4.27524 -1.04587 0.5
      vertex -4.30949 -0.523422 3.5
      vertex -4.30949 -0.523422 0.5
    endloop
  endfacet
  facet normal -0.997858 -0.0654163 0
    outer loop
      vertex -4.30949 -0.523422 3.5
      vertex -4.27524 -1.04587 0.5
      vertex -4.27524 -1.04587 3.5
    endloop
  endfacet
  facet normal -0.98836 -0.15213 0
    outer loop
      vertex -4.1386 -2.08377 0.5
      vertex -4.21825 -1.5663 3.5
      vertex -4.21825 -1.5663 0.5
    endloop
  endfacet
  facet normal -0.98836 -0.15213 0
    outer loop
      vertex -4.21825 -1.5663 3.5
      vertex -4.1386 -2.08377 0.5
      vertex -4.1386 -2.08377 3.5
    endloop
  endfacet
  facet normal -0.98836 0.15213 0
    outer loop
      vertex -4.21825 1.5663 0.5
      vertex -4.1386 2.08377 3.5
      vertex -4.1386 2.08377 0.5
    endloop
  endfacet
  facet normal -0.98836 0.15213 0
    outer loop
      vertex -4.1386 2.08377 3.5
      vertex -4.21825 1.5663 0.5
      vertex -4.21825 1.5663 3.5
    endloop
  endfacet
  facet normal -0.971347 0.237665 0
    outer loop
      vertex -4.03645 2.59727 0.5
      vertex -3.91202 3.10582 3.5
      vertex -3.91202 3.10582 0.5
    endloop
  endfacet
  facet normal -0.971347 0.237665 0
    outer loop
      vertex -3.91202 3.10582 3.5
      vertex -4.03645 2.59727 0.5
      vertex -4.03645 2.59727 3.5
    endloop
  endfacet
  facet normal -0.994058 -0.108855 0
    outer loop
      vertex -4.21825 -1.5663 0.5
      vertex -4.27524 -1.04587 3.5
      vertex -4.27524 -1.04587 0.5
    endloop
  endfacet
  facet normal -0.994058 -0.108855 0
    outer loop
      vertex -4.27524 -1.04587 3.5
      vertex -4.21825 -1.5663 0.5
      vertex -4.21825 -1.5663 3.5
    endloop
  endfacet
  facet normal -0.946919 -0.321472 0
    outer loop
      vertex -3.59721 -4.10423 0.5
      vertex -3.76552 -3.60846 3.5
      vertex -3.76552 -3.60846 0.5
    endloop
  endfacet
  facet normal -0.946919 -0.321472 0
    outer loop
      vertex -3.76552 -3.60846 3.5
      vertex -3.59721 -4.10423 0.5
      vertex -3.59721 -4.10423 3.5
    endloop
  endfacet
  facet normal -0.896881 -0.442271 0
    outer loop
      vertex -2.96504 -5.54097 0.5
      vertex -3.19659 -5.07141 3.5
      vertex -3.19659 -5.07141 0.5
    endloop
  endfacet
  facet normal -0.896881 -0.442271 0
    outer loop
      vertex -3.19659 -5.07141 3.5
      vertex -2.96504 -5.54097 0.5
      vertex -2.96504 -5.54097 3.5
    endloop
  endfacet
  facet normal -0.915306 -0.40276 0
    outer loop
      vertex -3.19659 -5.07141 0.5
      vertex -3.40746 -4.59219 3.5
      vertex -3.40746 -4.59219 0.5
    endloop
  endfacet
  facet normal -0.915306 -0.40276 0
    outer loop
      vertex -3.40746 -4.59219 3.5
      vertex -3.19659 -5.07141 0.5
      vertex -3.19659 -5.07141 3.5
    endloop
  endfacet
  facet normal -0.960053 0.279818 0
    outer loop
      vertex -3.91202 3.10582 0.5
      vertex -3.76552 3.60846 3.5
      vertex -3.76552 3.60846 0.5
    endloop
  endfacet
  facet normal -0.960053 0.279818 0
    outer loop
      vertex -3.76552 3.60846 3.5
      vertex -3.91202 3.10582 0.5
      vertex -3.91202 3.10582 3.5
    endloop
  endfacet
  facet normal -0.831465 0.555577 0
    outer loop
      vertex -2.4416 6.44759 0.5
      vertex -2.15073 6.8829 3.5
      vertex -2.15073 6.8829 0.5
    endloop
  endfacet
  facet normal -0.831465 0.555577 0
    outer loop
      vertex -2.15073 6.8829 3.5
      vertex -2.4416 6.44759 0.5
      vertex -2.4416 6.44759 3.5
    endloop
  endfacet
  facet normal -0.896881 0.442271 0
    outer loop
      vertex -3.19659 5.07141 0.5
      vertex -2.96504 5.54097 3.5
      vertex -2.96504 5.54097 0.5
    endloop
  endfacet
  facet normal -0.896881 0.442271 0
    outer loop
      vertex -2.96504 5.54097 3.5
      vertex -3.19659 5.07141 0.5
      vertex -3.19659 5.07141 3.5
    endloop
  endfacet
  facet normal -0.806446 -0.591307 0
    outer loop
      vertex -1.84114 -7.30513 0.5
      vertex -2.15073 -6.8829 3.5
      vertex -2.15073 -6.8829 0.5
    endloop
  endfacet
  facet normal -0.806446 -0.591307 0
    outer loop
      vertex -2.15073 -6.8829 3.5
      vertex -1.84114 -7.30513 0.5
      vertex -1.84114 -7.30513 3.5
    endloop
  endfacet
  facet normal -0.779904 -0.6259 0
    outer loop
      vertex -1.62456 -7.575 0.5
      vertex -1.84114 -7.30513 3.5
      vertex -1.84114 -7.30513 0.5
    endloop
  endfacet
  facet normal -0.779904 -0.6259 0
    outer loop
      vertex -1.84114 -7.30513 3.5
      vertex -1.62456 -7.575 0.5
      vertex -1.62456 -7.575 3.5
    endloop
  endfacet
  facet normal -0.854907 -0.518781 0
    outer loop
      vertex -2.4416 -6.44759 0.5
      vertex -2.71321 -6 3.5
      vertex -2.71321 -6 0.5
    endloop
  endfacet
  facet normal -0.854907 -0.518781 0
    outer loop
      vertex -2.71321 -6 3.5
      vertex -2.4416 -6.44759 0.5
      vertex -2.4416 -6.44759 3.5
    endloop
  endfacet
  facet normal -0.915306 0.40276 0
    outer loop
      vertex -3.40746 4.59219 0.5
      vertex -3.19659 5.07141 3.5
      vertex -3.19659 5.07141 0.5
    endloop
  endfacet
  facet normal -0.915306 0.40276 0
    outer loop
      vertex -3.19659 5.07141 3.5
      vertex -3.40746 4.59219 0.5
      vertex -3.40746 4.59219 3.5
    endloop
  endfacet
  facet normal -0.999762 0.0218128 0
    outer loop
      vertex -4.32091 0 0.5
      vertex -4.30949 0.523422 3.5
      vertex -4.30949 0.523422 0.5
    endloop
  endfacet
  facet normal -0.999762 0.0218128 0
    outer loop
      vertex -4.30949 0.523422 3.5
      vertex -4.32091 0 0.5
      vertex -4.32091 0 3.5
    endloop
  endfacet
  facet normal -0.971347 -0.237665 0
    outer loop
      vertex -3.91202 -3.10582 0.5
      vertex -4.03645 -2.59727 3.5
      vertex -4.03645 -2.59727 0.5
    endloop
  endfacet
  facet normal -0.971347 -0.237665 0
    outer loop
      vertex -4.03645 -2.59727 3.5
      vertex -3.91202 -3.10582 0.5
      vertex -3.91202 -3.10582 3.5
    endloop
  endfacet
  facet normal -0.994058 0.108855 0
    outer loop
      vertex -4.27524 1.04587 0.5
      vertex -4.21825 1.5663 3.5
      vertex -4.21825 1.5663 0.5
    endloop
  endfacet
  facet normal -0.994058 0.108855 0
    outer loop
      vertex -4.21825 1.5663 3.5
      vertex -4.27524 1.04587 0.5
      vertex -4.27524 1.04587 3.5
    endloop
  endfacet
  facet normal -0.997858 0.0654163 0
    outer loop
      vertex -4.30949 0.523422 0.5
      vertex -4.27524 1.04587 3.5
      vertex -4.27524 1.04587 0.5
    endloop
  endfacet
  facet normal -0.997858 0.0654163 0
    outer loop
      vertex -4.27524 1.04587 3.5
      vertex -4.30949 0.523422 0.5
      vertex -4.30949 0.523422 3.5
    endloop
  endfacet
  facet normal -0.876729 0.480985 0
    outer loop
      vertex -2.96504 5.54097 0.5
      vertex -2.71321 6 3.5
      vertex -2.71321 6 0.5
    endloop
  endfacet
  facet normal -0.876729 0.480985 0
    outer loop
      vertex -2.71321 6 3.5
      vertex -2.96504 5.54097 0.5
      vertex -2.96504 5.54097 3.5
    endloop
  endfacet
  facet normal -0.960053 -0.279818 0
    outer loop
      vertex -3.76552 -3.60846 0.5
      vertex -3.91202 -3.10582 3.5
      vertex -3.91202 -3.10582 0.5
    endloop
  endfacet
  facet normal -0.960053 -0.279818 0
    outer loop
      vertex -3.91202 -3.10582 3.5
      vertex -3.76552 -3.60846 0.5
      vertex -3.76552 -3.60846 3.5
    endloop
  endfacet
  facet normal -0.876729 -0.480985 0
    outer loop
      vertex -2.71321 -6 0.5
      vertex -2.96504 -5.54097 3.5
      vertex -2.96504 -5.54097 0.5
    endloop
  endfacet
  facet normal -0.876729 -0.480985 0
    outer loop
      vertex -2.96504 -5.54097 3.5
      vertex -2.71321 -6 0.5
      vertex -2.71321 -6 3.5
    endloop
  endfacet
  facet normal -0.980782 0.195106 0
    outer loop
      vertex -4.1386 2.08377 0.5
      vertex -4.03645 2.59727 3.5
      vertex -4.03645 2.59727 0.5
    endloop
  endfacet
  facet normal -0.980782 0.195106 0
    outer loop
      vertex -4.03645 2.59727 3.5
      vertex -4.1386 2.08377 0.5
      vertex -4.1386 2.08377 3.5
    endloop
  endfacet
  facet normal -0.980782 -0.195106 0
    outer loop
      vertex -4.03645 -2.59727 0.5
      vertex -4.1386 -2.08377 3.5
      vertex -4.1386 -2.08377 0.5
    endloop
  endfacet
  facet normal -0.980782 -0.195106 0
    outer loop
      vertex -4.1386 -2.08377 3.5
      vertex -4.03645 -2.59727 0.5
      vertex -4.03645 -2.59727 3.5
    endloop
  endfacet
  facet normal 0 0 -1
    outer loop
      vertex 7.99791 2.8883 0.5
      vertex 11 7.575 0.5
      vertex 7.99791 -2.8883 0.5
    endloop
  endfacet
  facet normal 0 0 -1
    outer loop
      vertex 11 7.575 0.5
      vertex 7.99791 2.8883 0.5
      vertex 8.075 3.375 0.5
    endloop
  endfacet
  facet normal 0 0 -1
    outer loop
      vertex 7.7742 -2.44924 0.5
      vertex 7.99791 2.8883 0.5
      vertex 7.99791 -2.8883 0.5
    endloop
  endfacet
  facet normal 0 0 -1
    outer loop
      vertex 7.7742 -2.44924 0.5
      vertex 7.7742 2.44924 0.5
      vertex 7.99791 2.8883 0.5
    endloop
  endfacet
  facet normal 0 0 -1
    outer loop
      vertex 7.42576 -2.1008 0.5
      vertex 7.7742 2.44924 0.5
      vertex 7.7742 -2.44924 0.5
    endloop
  endfacet
  facet normal 0 0 -1
    outer loop
      vertex 7.42576 -2.1008 0.5
      vertex 7.42576 2.1008 0.5
      vertex 7.7742 2.44924 0.5
    endloop
  endfacet
  facet normal 0 0 -1
    outer loop
      vertex 6.9867 -1.87709 0.5
      vertex 7.42576 2.1008 0.5
      vertex 7.42576 -2.1008 0.5
    endloop
  endfacet
  facet normal 0 0 -1
    outer loop
      vertex 6.9867 -1.87709 0.5
      vertex 6.9867 1.87709 0.5
      vertex 7.42576 2.1008 0.5
    endloop
  endfacet
  facet normal 0 0 -1
    outer loop
      vertex 6.5 -1.8 0.5
      vertex 6.9867 1.87709 0.5
      vertex 6.9867 -1.87709 0.5
    endloop
  endfacet
  facet normal 0 0 -1
    outer loop
      vertex 6.5 -1.8 0.5
      vertex 6.5 1.8 0.5
      vertex 6.9867 1.87709 0.5
    endloop
  endfacet
  facet normal 0 0 -1
    outer loop
      vertex 6.0133 -1.87709 0.5
      vertex 6.5 1.8 0.5
      vertex 6.5 -1.8 0.5
    endloop
  endfacet
  facet normal 0 0 -1
    outer loop
      vertex 6.0133 -1.87709 0.5
      vertex 6.0133 1.87709 0.5
      vertex 6.5 1.8 0.5
    endloop
  endfacet
  facet normal 0 0 -1
    outer loop
      vertex 5.57424 -2.1008 0.5
      vertex 6.0133 1.87709 0.5
      vertex 6.0133 -1.87709 0.5
    endloop
  endfacet
  facet normal 0 0 -1
    outer loop
      vertex 5.57424 -2.1008 0.5
      vertex 5.57424 2.1008 0.5
      vertex 6.0133 1.87709 0.5
    endloop
  endfacet
  facet normal 0 0 -1
    outer loop
      vertex 5.2258 -2.44924 0.5
      vertex 5.57424 2.1008 0.5
      vertex 5.57424 -2.1008 0.5
    endloop
  endfacet
  facet normal 0 0 -1
    outer loop
      vertex 5.2258 -2.44924 0.5
      vertex 5.2258 2.44924 0.5
      vertex 5.57424 2.1008 0.5
    endloop
  endfacet
  facet normal 0 0 -1
    outer loop
      vertex -4.30949 -0.523422 0.5
      vertex 5.2258 -2.44924 0.5
      vertex 5.00209 -2.8883 0.5
    endloop
  endfacet
  facet normal 0 0 -1
    outer loop
      vertex 5.2258 -2.44924 0.5
      vertex -4.32091 0 0.5
      vertex 5.2258 2.44924 0.5
    endloop
  endfacet
  facet normal 0 0 -1
    outer loop
      vertex -3.76552 -3.60846 0.5
      vertex 5.00209 -2.8883 0.5
      vertex 4.925 -3.375 0.5
    endloop
  endfacet
  facet normal 0 -0 -1
    outer loop
      vertex -4.30949 0.523422 0.5
      vertex 5.2258 2.44924 0.5
      vertex -4.32091 0 0.5
    endloop
  endfacet
  facet normal 0 0 -1
    outer loop
      vertex 7.99791 -2.8883 0.5
      vertex 11 -7.575 0.5
      vertex 8.075 -3.375 0.5
    endloop
  endfacet
  facet normal 0 0 -1
    outer loop
      vertex 11 -7.575 0.5
      vertex 7.99791 -3.8617 0.5
      vertex 8.075 -3.375 0.5
    endloop
  endfacet
  facet normal 0 0 -1
    outer loop
      vertex 11 -7.575 0.5
      vertex 7.7742 -4.30076 0.5
      vertex 7.99791 -3.8617 0.5
    endloop
  endfacet
  facet normal 0 0 -1
    outer loop
      vertex 11 -7.575 0.5
      vertex 7.42576 -4.6492 0.5
      vertex 7.7742 -4.30076 0.5
    endloop
  endfacet
  facet normal 0 0 -1
    outer loop
      vertex 11 -7.575 0.5
      vertex 6.9867 -4.87291 0.5
      vertex 7.42576 -4.6492 0.5
    endloop
  endfacet
  facet normal 0 0 -1
    outer loop
      vertex 11 -7.575 0.5
      vertex 6.5 -4.95 0.5
      vertex 6.9867 -4.87291 0.5
    endloop
  endfacet
  facet normal 0 0 -1
    outer loop
      vertex 11 -7.575 0.5
      vertex 6.0133 -4.87291 0.5
      vertex 6.5 -4.95 0.5
    endloop
  endfacet
  facet normal 0 0 -1
    outer loop
      vertex -1.62456 -7.575 0.5
      vertex 6.0133 -4.87291 0.5
      vertex 11 -7.575 0.5
    endloop
  endfacet
  facet normal 0 0 -1
    outer loop
      vertex -2.15073 -6.8829 0.5
      vertex 5.00209 -3.8617 0.5
      vertex -1.84114 -7.30513 0.5
    endloop
  endfacet
  facet normal 0 0 -1
    outer loop
      vertex -1.84114 -7.30513 0.5
      vertex 5.00209 -3.8617 0.5
      vertex -1.62456 -7.575 0.5
    endloop
  endfacet
  facet normal -0 0 -1
    outer loop
      vertex 5.2258 -4.30076 0.5
      vertex -1.62456 -7.575 0.5
      vertex 5.00209 -3.8617 0.5
    endloop
  endfacet
  facet normal -0 0 -1
    outer loop
      vertex 5.57424 -4.6492 0.5
      vertex -1.62456 -7.575 0.5
      vertex 5.2258 -4.30076 0.5
    endloop
  endfacet
  facet normal -0 0 -1
    outer loop
      vertex 6.0133 -4.87291 0.5
      vertex -1.62456 -7.575 0.5
      vertex 5.57424 -4.6492 0.5
    endloop
  endfacet
  facet normal 0 0 -1
    outer loop
      vertex 11 -7.575 0.5
      vertex 7.99791 -2.8883 0.5
      vertex 11 7.575 0.5
    endloop
  endfacet
  facet normal 0 0 -1
    outer loop
      vertex 7.99791 3.8617 0.5
      vertex 11 7.575 0.5
      vertex 8.075 3.375 0.5
    endloop
  endfacet
  facet normal 0 0 -1
    outer loop
      vertex 7.7742 4.30076 0.5
      vertex 11 7.575 0.5
      vertex 7.99791 3.8617 0.5
    endloop
  endfacet
  facet normal 0 0 -1
    outer loop
      vertex 7.42576 4.6492 0.5
      vertex 11 7.575 0.5
      vertex 7.7742 4.30076 0.5
    endloop
  endfacet
  facet normal 0 0 -1
    outer loop
      vertex 6.9867 4.87291 0.5
      vertex 11 7.575 0.5
      vertex 7.42576 4.6492 0.5
    endloop
  endfacet
  facet normal 0 0 -1
    outer loop
      vertex 6.5 4.95 0.5
      vertex 11 7.575 0.5
      vertex 6.9867 4.87291 0.5
    endloop
  endfacet
  facet normal 0 0 -1
    outer loop
      vertex 6.0133 4.87291 0.5
      vertex 11 7.575 0.5
      vertex 6.5 4.95 0.5
    endloop
  endfacet
  facet normal 0 0 -1
    outer loop
      vertex -1.62456 7.575 0.5
      vertex 6.0133 4.87291 0.5
      vertex 5.57424 4.6492 0.5
    endloop
  endfacet
  facet normal 0 0 -1
    outer loop
      vertex -2.4416 -6.44759 0.5
      vertex 5.00209 -3.8617 0.5
      vertex -2.15073 -6.8829 0.5
    endloop
  endfacet
  facet normal -0 0 -1
    outer loop
      vertex 5.00209 -3.8617 0.5
      vertex -2.4416 -6.44759 0.5
      vertex 4.925 -3.375 0.5
    endloop
  endfacet
  facet normal 0 0 -1
    outer loop
      vertex 6.0133 4.87291 0.5
      vertex -1.62456 7.575 0.5
      vertex 11 7.575 0.5
    endloop
  endfacet
  facet normal 0 0 -1
    outer loop
      vertex 5.2258 4.30076 0.5
      vertex -1.62456 7.575 0.5
      vertex 5.57424 4.6492 0.5
    endloop
  endfacet
  facet normal 0 0 -1
    outer loop
      vertex -2.71321 -6 0.5
      vertex 4.925 -3.375 0.5
      vertex -2.4416 -6.44759 0.5
    endloop
  endfacet
  facet normal 0 0 -1
    outer loop
      vertex -2.96504 -5.54097 0.5
      vertex 4.925 -3.375 0.5
      vertex -2.71321 -6 0.5
    endloop
  endfacet
  facet normal 0 0 -1
    outer loop
      vertex 5.00209 3.8617 0.5
      vertex -1.62456 7.575 0.5
      vertex 5.2258 4.30076 0.5
    endloop
  endfacet
  facet normal 0 0 -1
    outer loop
      vertex -3.19659 -5.07141 0.5
      vertex 4.925 -3.375 0.5
      vertex -2.96504 -5.54097 0.5
    endloop
  endfacet
  facet normal 0 -0 -1
    outer loop
      vertex -1.62456 7.575 0.5
      vertex 5.00209 3.8617 0.5
      vertex -1.84114 7.30513 0.5
    endloop
  endfacet
  facet normal 0 0 -1
    outer loop
      vertex -3.40746 -4.59219 0.5
      vertex 4.925 -3.375 0.5
      vertex -3.19659 -5.07141 0.5
    endloop
  endfacet
  facet normal 0 -0 -1
    outer loop
      vertex -1.84114 7.30513 0.5
      vertex 5.00209 3.8617 0.5
      vertex -2.15073 6.8829 0.5
    endloop
  endfacet
  facet normal 0 0 -1
    outer loop
      vertex -3.59721 -4.10423 0.5
      vertex 4.925 -3.375 0.5
      vertex -3.40746 -4.59219 0.5
    endloop
  endfacet
  facet normal 0 -0 -1
    outer loop
      vertex -2.15073 6.8829 0.5
      vertex 5.00209 3.8617 0.5
      vertex -2.4416 6.44759 0.5
    endloop
  endfacet
  facet normal 0 0 -1
    outer loop
      vertex -3.76552 -3.60846 0.5
      vertex 4.925 -3.375 0.5
      vertex -3.59721 -4.10423 0.5
    endloop
  endfacet
  facet normal 0 0 -1
    outer loop
      vertex 4.925 3.375 0.5
      vertex -2.4416 6.44759 0.5
      vertex 5.00209 3.8617 0.5
    endloop
  endfacet
  facet normal 0 0 -1
    outer loop
      vertex 5.00209 -2.8883 0.5
      vertex -3.76552 -3.60846 0.5
      vertex -3.91202 -3.10582 0.5
    endloop
  endfacet
  facet normal 0 -0 -1
    outer loop
      vertex -2.4416 6.44759 0.5
      vertex 4.925 3.375 0.5
      vertex -2.71321 6 0.5
    endloop
  endfacet
  facet normal -0 0 -1
    outer loop
      vertex 5.00209 -2.8883 0.5
      vertex -3.91202 -3.10582 0.5
      vertex -4.03645 -2.59727 0.5
    endloop
  endfacet
  facet normal 0 -0 -1
    outer loop
      vertex -2.71321 6 0.5
      vertex 4.925 3.375 0.5
      vertex -2.96504 5.54097 0.5
    endloop
  endfacet
  facet normal 0 0 -1
    outer loop
      vertex 5.00209 -2.8883 0.5
      vertex -4.03645 -2.59727 0.5
      vertex -4.1386 -2.08377 0.5
    endloop
  endfacet
  facet normal 0 -0 -1
    outer loop
      vertex -2.96504 5.54097 0.5
      vertex 4.925 3.375 0.5
      vertex -3.19659 5.07141 0.5
    endloop
  endfacet
  facet normal 0 0 -1
    outer loop
      vertex 5.00209 -2.8883 0.5
      vertex -4.1386 -2.08377 0.5
      vertex -4.21825 -1.5663 0.5
    endloop
  endfacet
  facet normal 0 -0 -1
    outer loop
      vertex -3.19659 5.07141 0.5
      vertex 4.925 3.375 0.5
      vertex -3.40746 4.59219 0.5
    endloop
  endfacet
  facet normal 0 0 -1
    outer loop
      vertex 5.00209 -2.8883 0.5
      vertex -4.21825 -1.5663 0.5
      vertex -4.27524 -1.04587 0.5
    endloop
  endfacet
  facet normal 0 -0 -1
    outer loop
      vertex -3.40746 4.59219 0.5
      vertex 4.925 3.375 0.5
      vertex -3.59721 4.10423 0.5
    endloop
  endfacet
  facet normal 0 0 -1
    outer loop
      vertex 5.00209 -2.8883 0.5
      vertex -4.27524 -1.04587 0.5
      vertex -4.30949 -0.523422 0.5
    endloop
  endfacet
  facet normal 0 -0 -1
    outer loop
      vertex -3.59721 4.10423 0.5
      vertex 4.925 3.375 0.5
      vertex -3.76552 3.60846 0.5
    endloop
  endfacet
  facet normal 0 0 -1
    outer loop
      vertex 5.2258 -2.44924 0.5
      vertex -4.30949 -0.523422 0.5
      vertex -4.32091 0 0.5
    endloop
  endfacet
  facet normal 0 0 -1
    outer loop
      vertex 5.00209 2.8883 0.5
      vertex -3.76552 3.60846 0.5
      vertex 4.925 3.375 0.5
    endloop
  endfacet
  facet normal -0 0 -1
    outer loop
      vertex 5.2258 2.44924 0.5
      vertex -4.30949 0.523422 0.5
      vertex 5.00209 2.8883 0.5
    endloop
  endfacet
  facet normal 0 -0 -1
    outer loop
      vertex -3.76552 3.60846 0.5
      vertex 5.00209 2.8883 0.5
      vertex -3.91202 3.10582 0.5
    endloop
  endfacet
  facet normal 0 -0 -1
    outer loop
      vertex -4.27524 1.04587 0.5
      vertex 5.00209 2.8883 0.5
      vertex -4.30949 0.523422 0.5
    endloop
  endfacet
  facet normal 0 -0 -1
    outer loop
      vertex -3.91202 3.10582 0.5
      vertex 5.00209 2.8883 0.5
      vertex -4.03645 2.59727 0.5
    endloop
  endfacet
  facet normal 0 -0 -1
    outer loop
      vertex -4.21825 1.5663 0.5
      vertex 5.00209 2.8883 0.5
      vertex -4.27524 1.04587 0.5
    endloop
  endfacet
  facet normal 0 -0 -1
    outer loop
      vertex -4.03645 2.59727 0.5
      vertex 5.00209 2.8883 0.5
      vertex -4.1386 2.08377 0.5
    endloop
  endfacet
  facet normal 0 -0 -1
    outer loop
      vertex -4.1386 2.08377 0.5
      vertex 5.00209 2.8883 0.5
      vertex -4.21825 1.5663 0.5
    endloop
  endfacet
  facet normal -0 0 1
    outer loop
      vertex 7.99791 -2.8883 3.5
      vertex 11 -7.575 3.5
      vertex 7.99791 2.8883 3.5
    endloop
  endfacet
  facet normal 0 0 1
    outer loop
      vertex 11 -7.575 3.5
      vertex 7.99791 -2.8883 3.5
      vertex 8.075 -3.375 3.5
    endloop
  endfacet
  facet normal -0 0 1
    outer loop
      vertex 7.7742 2.44924 3.5
      vertex 7.99791 -2.8883 3.5
      vertex 7.99791 2.8883 3.5
    endloop
  endfacet
  facet normal 0 0 1
    outer loop
      vertex 7.7742 2.44924 3.5
      vertex 7.7742 -2.44924 3.5
      vertex 7.99791 -2.8883 3.5
    endloop
  endfacet
  facet normal -0 0 1
    outer loop
      vertex 7.42576 2.1008 3.5
      vertex 7.7742 -2.44924 3.5
      vertex 7.7742 2.44924 3.5
    endloop
  endfacet
  facet normal 0 0 1
    outer loop
      vertex 7.42576 2.1008 3.5
      vertex 7.42576 -2.1008 3.5
      vertex 7.7742 -2.44924 3.5
    endloop
  endfacet
  facet normal -0 0 1
    outer loop
      vertex 6.9867 1.87709 3.5
      vertex 7.42576 -2.1008 3.5
      vertex 7.42576 2.1008 3.5
    endloop
  endfacet
  facet normal 0 0 1
    outer loop
      vertex 6.9867 1.87709 3.5
      vertex 6.9867 -1.87709 3.5
      vertex 7.42576 -2.1008 3.5
    endloop
  endfacet
  facet normal -0 0 1
    outer loop
      vertex 6.5 1.8 3.5
      vertex 6.9867 -1.87709 3.5
      vertex 6.9867 1.87709 3.5
    endloop
  endfacet
  facet normal 0 0 1
    outer loop
      vertex 6.5 1.8 3.5
      vertex 6.5 -1.8 3.5
      vertex 6.9867 -1.87709 3.5
    endloop
  endfacet
  facet normal 0 0 1
    outer loop
      vertex 6.0133 1.87709 3.5
      vertex 6.5 -1.8 3.5
      vertex 6.5 1.8 3.5
    endloop
  endfacet
  facet normal 0 0 1
    outer loop
      vertex 6.0133 1.87709 3.5
      vertex 6.0133 -1.87709 3.5
      vertex 6.5 -1.8 3.5
    endloop
  endfacet
  facet normal 0 0 1
    outer loop
      vertex 5.57424 2.1008 3.5
      vertex 6.0133 -1.87709 3.5
      vertex 6.0133 1.87709 3.5
    endloop
  endfacet
  facet normal 0 0 1
    outer loop
      vertex 5.57424 2.1008 3.5
      vertex 5.57424 -2.1008 3.5
      vertex 6.0133 -1.87709 3.5
    endloop
  endfacet
  facet normal 0 0 1
    outer loop
      vertex 5.2258 2.44924 3.5
      vertex 5.57424 -2.1008 3.5
      vertex 5.57424 2.1008 3.5
    endloop
  endfacet
  facet normal 0 0 1
    outer loop
      vertex 5.2258 2.44924 3.5
      vertex 5.2258 -2.44924 3.5
      vertex 5.57424 -2.1008 3.5
    endloop
  endfacet
  facet normal 0 0 1
    outer loop
      vertex -4.30949 0.523422 3.5
      vertex 5.2258 2.44924 3.5
      vertex 5.00209 2.8883 3.5
    endloop
  endfacet
  facet normal 0 0 1
    outer loop
      vertex 5.2258 2.44924 3.5
      vertex -4.32091 0 3.5
      vertex 5.2258 -2.44924 3.5
    endloop
  endfacet
  facet normal 0 0 1
    outer loop
      vertex -3.76552 3.60846 3.5
      vertex 5.00209 2.8883 3.5
      vertex 4.925 3.375 3.5
    endloop
  endfacet
  facet normal -0 -0 1
    outer loop
      vertex -4.30949 -0.523422 3.5
      vertex 5.2258 -2.44924 3.5
      vertex -4.32091 0 3.5
    endloop
  endfacet
  facet normal 0 0 1
    outer loop
      vertex 7.99791 2.8883 3.5
      vertex 11 7.575 3.5
      vertex 8.075 3.375 3.5
    endloop
  endfacet
  facet normal 0 0 1
    outer loop
      vertex 11 7.575 3.5
      vertex 7.99791 3.8617 3.5
      vertex 8.075 3.375 3.5
    endloop
  endfacet
  facet normal 0 0 1
    outer loop
      vertex 11 7.575 3.5
      vertex 7.7742 4.30076 3.5
      vertex 7.99791 3.8617 3.5
    endloop
  endfacet
  facet normal 0 0 1
    outer loop
      vertex 11 7.575 3.5
      vertex 7.42576 4.6492 3.5
      vertex 7.7742 4.30076 3.5
    endloop
  endfacet
  facet normal 0 0 1
    outer loop
      vertex 11 7.575 3.5
      vertex 6.9867 4.87291 3.5
      vertex 7.42576 4.6492 3.5
    endloop
  endfacet
  facet normal 0 0 1
    outer loop
      vertex 11 7.575 3.5
      vertex 6.5 4.95 3.5
      vertex 6.9867 4.87291 3.5
    endloop
  endfacet
  facet normal 0 0 1
    outer loop
      vertex 11 7.575 3.5
      vertex 6.0133 4.87291 3.5
      vertex 6.5 4.95 3.5
    endloop
  endfacet
  facet normal -0 0 1
    outer loop
      vertex -1.62456 7.575 3.5
      vertex 6.0133 4.87291 3.5
      vertex 11 7.575 3.5
    endloop
  endfacet
  facet normal -0 0 1
    outer loop
      vertex -2.15073 6.8829 3.5
      vertex 5.00209 3.8617 3.5
      vertex -1.84114 7.30513 3.5
    endloop
  endfacet
  facet normal -0 0 1
    outer loop
      vertex -1.84114 7.30513 3.5
      vertex 5.00209 3.8617 3.5
      vertex -1.62456 7.575 3.5
    endloop
  endfacet
  facet normal 0 0 1
    outer loop
      vertex 5.2258 4.30076 3.5
      vertex -1.62456 7.575 3.5
      vertex 5.00209 3.8617 3.5
    endloop
  endfacet
  facet normal 0 0 1
    outer loop
      vertex 5.57424 4.6492 3.5
      vertex -1.62456 7.575 3.5
      vertex 5.2258 4.30076 3.5
    endloop
  endfacet
  facet normal 0 0 1
    outer loop
      vertex 6.0133 4.87291 3.5
      vertex -1.62456 7.575 3.5
      vertex 5.57424 4.6492 3.5
    endloop
  endfacet
  facet normal 0 0 1
    outer loop
      vertex 11 7.575 3.5
      vertex 7.99791 2.8883 3.5
      vertex 11 -7.575 3.5
    endloop
  endfacet
  facet normal -0 0 1
    outer loop
      vertex 7.99791 -3.8617 3.5
      vertex 11 -7.575 3.5
      vertex 8.075 -3.375 3.5
    endloop
  endfacet
  facet normal -0 0 1
    outer loop
      vertex 7.7742 -4.30076 3.5
      vertex 11 -7.575 3.5
      vertex 7.99791 -3.8617 3.5
    endloop
  endfacet
  facet normal -0 0 1
    outer loop
      vertex 7.42576 -4.6492 3.5
      vertex 11 -7.575 3.5
      vertex 7.7742 -4.30076 3.5
    endloop
  endfacet
  facet normal -0 0 1
    outer loop
      vertex 6.9867 -4.87291 3.5
      vertex 11 -7.575 3.5
      vertex 7.42576 -4.6492 3.5
    endloop
  endfacet
  facet normal -0 0 1
    outer loop
      vertex 6.5 -4.95 3.5
      vertex 11 -7.575 3.5
      vertex 6.9867 -4.87291 3.5
    endloop
  endfacet
  facet normal 0 0 1
    outer loop
      vertex 6.0133 -4.87291 3.5
      vertex 11 -7.575 3.5
      vertex 6.5 -4.95 3.5
    endloop
  endfacet
  facet normal 0 0 1
    outer loop
      vertex -1.62456 -7.575 3.5
      vertex 6.0133 -4.87291 3.5
      vertex 5.57424 -4.6492 3.5
    endloop
  endfacet
  facet normal -0 0 1
    outer loop
      vertex -2.4416 6.44759 3.5
      vertex 5.00209 3.8617 3.5
      vertex -2.15073 6.8829 3.5
    endloop
  endfacet
  facet normal 0 0 1
    outer loop
      vertex 5.00209 3.8617 3.5
      vertex -2.4416 6.44759 3.5
      vertex 4.925 3.375 3.5
    endloop
  endfacet
  facet normal 0 0 1
    outer loop
      vertex 6.0133 -4.87291 3.5
      vertex -1.62456 -7.575 3.5
      vertex 11 -7.575 3.5
    endloop
  endfacet
  facet normal 0 0 1
    outer loop
      vertex 5.2258 -4.30076 3.5
      vertex -1.62456 -7.575 3.5
      vertex 5.57424 -4.6492 3.5
    endloop
  endfacet
  facet normal -0 0 1
    outer loop
      vertex -2.71321 6 3.5
      vertex 4.925 3.375 3.5
      vertex -2.4416 6.44759 3.5
    endloop
  endfacet
  facet normal -0 0 1
    outer loop
      vertex -2.96504 5.54097 3.5
      vertex 4.925 3.375 3.5
      vertex -2.71321 6 3.5
    endloop
  endfacet
  facet normal 0 0 1
    outer loop
      vertex 5.00209 -3.8617 3.5
      vertex -1.62456 -7.575 3.5
      vertex 5.2258 -4.30076 3.5
    endloop
  endfacet
  facet normal -0 0 1
    outer loop
      vertex -3.19659 5.07141 3.5
      vertex 4.925 3.375 3.5
      vertex -2.96504 5.54097 3.5
    endloop
  endfacet
  facet normal 0 -0 1
    outer loop
      vertex -1.62456 -7.575 3.5
      vertex 5.00209 -3.8617 3.5
      vertex -1.84114 -7.30513 3.5
    endloop
  endfacet
  facet normal -0 0 1
    outer loop
      vertex -3.40746 4.59219 3.5
      vertex 4.925 3.375 3.5
      vertex -3.19659 5.07141 3.5
    endloop
  endfacet
  facet normal 0 -0 1
    outer loop
      vertex -1.84114 -7.30513 3.5
      vertex 5.00209 -3.8617 3.5
      vertex -2.15073 -6.8829 3.5
    endloop
  endfacet
  facet normal -0 0 1
    outer loop
      vertex -3.59721 4.10423 3.5
      vertex 4.925 3.375 3.5
      vertex -3.40746 4.59219 3.5
    endloop
  endfacet
  facet normal 0 -0 1
    outer loop
      vertex -2.15073 -6.8829 3.5
      vertex 5.00209 -3.8617 3.5
      vertex -2.4416 -6.44759 3.5
    endloop
  endfacet
  facet normal -0 0 1
    outer loop
      vertex -3.76552 3.60846 3.5
      vertex 4.925 3.375 3.5
      vertex -3.59721 4.10423 3.5
    endloop
  endfacet
  facet normal 0 0 1
    outer loop
      vertex 4.925 -3.375 3.5
      vertex -2.4416 -6.44759 3.5
      vertex 5.00209 -3.8617 3.5
    endloop
  endfacet
  facet normal 0 0 1
    outer loop
      vertex 5.00209 2.8883 3.5
      vertex -3.76552 3.60846 3.5
      vertex -3.91202 3.10582 3.5
    endloop
  endfacet
  facet normal 0 -0 1
    outer loop
      vertex -2.4416 -6.44759 3.5
      vertex 4.925 -3.375 3.5
      vertex -2.71321 -6 3.5
    endloop
  endfacet
  facet normal 0 0 1
    outer loop
      vertex 5.00209 2.8883 3.5
      vertex -3.91202 3.10582 3.5
      vertex -4.03645 2.59727 3.5
    endloop
  endfacet
  facet normal 0 -0 1
    outer loop
      vertex -2.71321 -6 3.5
      vertex 4.925 -3.375 3.5
      vertex -2.96504 -5.54097 3.5
    endloop
  endfacet
  facet normal 0 0 1
    outer loop
      vertex 5.00209 2.8883 3.5
      vertex -4.03645 2.59727 3.5
      vertex -4.1386 2.08377 3.5
    endloop
  endfacet
  facet normal 0 -0 1
    outer loop
      vertex -2.96504 -5.54097 3.5
      vertex 4.925 -3.375 3.5
      vertex -3.19659 -5.07141 3.5
    endloop
  endfacet
  facet normal 0 0 1
    outer loop
      vertex 5.00209 2.8883 3.5
      vertex -4.1386 2.08377 3.5
      vertex -4.21825 1.5663 3.5
    endloop
  endfacet
  facet normal 0 -0 1
    outer loop
      vertex -3.19659 -5.07141 3.5
      vertex 4.925 -3.375 3.5
      vertex -3.40746 -4.59219 3.5
    endloop
  endfacet
  facet normal 0 0 1
    outer loop
      vertex 5.00209 2.8883 3.5
      vertex -4.21825 1.5663 3.5
      vertex -4.27524 1.04587 3.5
    endloop
  endfacet
  facet normal 0 -0 1
    outer loop
      vertex -3.40746 -4.59219 3.5
      vertex 4.925 -3.375 3.5
      vertex -3.59721 -4.10423 3.5
    endloop
  endfacet
  facet normal 0 0 1
    outer loop
      vertex 5.00209 2.8883 3.5
      vertex -4.27524 1.04587 3.5
      vertex -4.30949 0.523422 3.5
    endloop
  endfacet
  facet normal 0 -0 1
    outer loop
      vertex -3.59721 -4.10423 3.5
      vertex 4.925 -3.375 3.5
      vertex -3.76552 -3.60846 3.5
    endloop
  endfacet
  facet normal 0 0 1
    outer loop
      vertex 5.2258 2.44924 3.5
      vertex -4.30949 0.523422 3.5
      vertex -4.32091 0 3.5
    endloop
  endfacet
  facet normal 0 0 1
    outer loop
      vertex 5.00209 -2.8883 3.5
      vertex -3.76552 -3.60846 3.5
      vertex 4.925 -3.375 3.5
    endloop
  endfacet
  facet normal 0 0 1
    outer loop
      vertex 5.2258 -2.44924 3.5
      vertex -4.30949 -0.523422 3.5
      vertex 5.00209 -2.8883 3.5
    endloop
  endfacet
  facet normal 0 -0 1
    outer loop
      vertex -3.76552 -3.60846 3.5
      vertex 5.00209 -2.8883 3.5
      vertex -3.91202 -3.10582 3.5
    endloop
  endfacet
  facet normal -0 -0 1
    outer loop
      vertex -4.27524 -1.04587 3.5
      vertex 5.00209 -2.8883 3.5
      vertex -4.30949 -0.523422 3.5
    endloop
  endfacet
  facet normal 0 -0 1
    outer loop
      vertex -3.91202 -3.10582 3.5
      vertex 5.00209 -2.8883 3.5
      vertex -4.03645 -2.59727 3.5
    endloop
  endfacet
  facet normal -0 -0 1
    outer loop
      vertex -4.21825 -1.5663 3.5
      vertex 5.00209 -2.8883 3.5
      vertex -4.27524 -1.04587 3.5
    endloop
  endfacet
  facet normal -0 -0 1
    outer loop
      vertex -4.03645 -2.59727 3.5
      vertex 5.00209 -2.8883 3.5
      vertex -4.1386 -2.08377 3.5
    endloop
  endfacet
  facet normal -0 -0 1
    outer loop
      vertex -4.1386 -2.08377 3.5
      vertex 5.00209 -2.8883 3.5
      vertex -4.21825 -1.5663 3.5
    endloop
  endfacet
  facet normal -0.806446 0.591307 0
    outer loop
      vertex -2.15073 6.8829 0.5
      vertex -1.84114 7.30513 3.5
      vertex -1.84114 7.30513 0.5
    endloop
  endfacet
  facet normal -0.806446 0.591307 0
    outer loop
      vertex -1.84114 7.30513 3.5
      vertex -2.15073 6.8829 0.5
      vertex -2.15073 6.8829 3.5
    endloop
  endfacet
  facet normal -0.946919 0.321472 0
    outer loop
      vertex -3.76552 3.60846 0.5
      vertex -3.59721 4.10423 3.5
      vertex -3.59721 4.10423 0.5
    endloop
  endfacet
  facet normal -0.946919 0.321472 0
    outer loop
      vertex -3.59721 4.10423 3.5
      vertex -3.76552 3.60846 0.5
      vertex -3.76552 3.60846 3.5
    endloop
  endfacet
endsolid OpenSCAD_Model
